<svg width="159" height="123" viewBox="0 0 159 123" fill="none" xmlns="http://www.w3.org/2000/svg">
<path d="M154 106V2H114.215L95.8523 12H2V106H154Z" fill="#003265" stroke="#003265" stroke-width="4" stroke-linejoin="round"/>
<rect x="7" y="19" width="139" height="34" fill="white" stroke="white" stroke-width="4" stroke-linejoin="round"/>
<path d="M2 121V2H25.3007L43.5359 26H157V121H2Z" fill="#0E5084" stroke="#0E5084" stroke-width="4" stroke-linejoin="round"/>
<path d="M8.07463 110.172L3 116.397H8.07463V110.172Z" fill="#003E7E"/>
<path d="M8.07463 110.172L13 116.397H8.07463V110.172Z" fill="#003E7E"/>
<path d="M8.07463 116.397H3L5.93794 120H10.1485L13 116.397H8.07463Z" fill="#003E7E"/>
<path d="M15.0746 101L10 107.224H15.0746V101Z" fill="#003E7E"/>
<path d="M15.0746 101L20 107.224H15.0746V101Z" fill="#003E7E"/>
<path d="M15.0746 113.448L10 107.224H15.0746V113.448Z" fill="#003E7E"/>
<path d="M15.0746 113.448L20 107.224H15.0746V113.448Z" fill="#003E7E"/>
<path d="M21.0746 110.172L16 116.397H21.0746V110.172Z" fill="#003E7E"/>
<path d="M21.0746 110.172L26 116.397H21.0746V110.172Z" fill="#003E7E"/>
<path d="M21.0746 116.397H16L18.9379 120H23.1485L26 116.397H21.0746Z" fill="#003E7E"/>
<path d="M28.0746 101L23 107.224H28.0746V101Z" fill="#003E7E"/>
<path d="M28.0746 101L33 107.224H28.0746V101Z" fill="#003E7E"/>
<path d="M28.0746 113.448L23 107.224H28.0746V113.448Z" fill="#003E7E"/>
<path d="M28.0746 113.448L33 107.224H28.0746V113.448Z" fill="#003E7E"/>
<path d="M34.0746 110.172L29 116.397H34.0746V110.172Z" fill="#003E7E"/>
<path d="M34.0746 110.172L39 116.397H34.0746V110.172Z" fill="#003E7E"/>
<path d="M34.0746 116.397H29L31.9379 120H36.1485L39 116.397H34.0746Z" fill="#003E7E"/>
<path d="M41.0746 101L36 107.224H41.0746V101Z" fill="#003E7E"/>
<path d="M41.0746 101L46 107.224H41.0746V101Z" fill="#003E7E"/>
<path d="M41.0746 113.448L36 107.224H41.0746V113.448Z" fill="#003E7E"/>
<path d="M41.0746 113.448L46 107.224H41.0746V113.448Z" fill="#003E7E"/>
<path d="M47.0746 110.172L42 116.397H47.0746V110.172Z" fill="#003E7E"/>
<path d="M47.0746 110.172L52 116.397H47.0746V110.172Z" fill="#003E7E"/>
<path d="M47.0746 116.397H42L44.9379 120H49.1485L52 116.397H47.0746Z" fill="#003E7E"/>
<path d="M54.0746 101L49 107.224H54.0746V101Z" fill="#003E7E"/>
<path d="M54.0746 101L59 107.224H54.0746V101Z" fill="#003E7E"/>
<path d="M54.0746 113.448L49 107.224H54.0746V113.448Z" fill="#003E7E"/>
<path d="M54.0746 113.448L59 107.224H54.0746V113.448Z" fill="#003E7E"/>
<path d="M60.0746 110.172L55 116.397H60.0746V110.172Z" fill="#003E7E"/>
<path d="M60.0746 110.172L65 116.397H60.0746V110.172Z" fill="#003E7E"/>
<path d="M60.0746 116.397H55L57.9379 120H62.1485L65 116.397H60.0746Z" fill="#003E7E"/>
<path d="M67.0746 101L62 107.224H67.0746V101Z" fill="#003E7E"/>
<path d="M67.0746 101L72 107.224H67.0746V101Z" fill="#003E7E"/>
<path d="M67.0746 113.448L62 107.224H67.0746V113.448Z" fill="#003E7E"/>
<path d="M67.0746 113.448L72 107.224H67.0746V113.448Z" fill="#003E7E"/>
<path d="M73.0746 110.172L68 116.397H73.0746V110.172Z" fill="#003E7E"/>
<path d="M73.0746 110.172L78 116.397H73.0746V110.172Z" fill="#003E7E"/>
<path d="M73.0746 116.397H68L70.9379 120H75.1485L78 116.397H73.0746Z" fill="#003E7E"/>
<path d="M80.0746 101L75 107.224H80.0746V101Z" fill="#003E7E"/>
<path d="M80.0746 101L85 107.224H80.0746V101Z" fill="#003E7E"/>
<path d="M80.0746 113.448L75 107.224H80.0746V113.448Z" fill="#003E7E"/>
<path d="M80.0746 113.448L85 107.224H80.0746V113.448Z" fill="#003E7E"/>
<path d="M86.0746 110.172L81 116.397H86.0746V110.172Z" fill="#003E7E"/>
<path d="M86.0746 110.172L91 116.397H86.0746V110.172Z" fill="#003E7E"/>
<path d="M86.0746 116.397H81L83.9379 120H88.1485L91 116.397H86.0746Z" fill="#003E7E"/>
<path d="M93.0746 101L88 107.224H93.0746V101Z" fill="#003E7E"/>
<path d="M93.0746 101L98 107.224H93.0746V101Z" fill="#003E7E"/>
<path d="M93.0746 113.448L88 107.224H93.0746V113.448Z" fill="#003E7E"/>
<path d="M93.0746 113.448L98 107.224H93.0746V113.448Z" fill="#003E7E"/>
<path d="M99.0746 110.172L94 116.397H99.0746V110.172Z" fill="#003E7E"/>
<path d="M99.0746 110.172L104 116.397H99.0746V110.172Z" fill="#003E7E"/>
<path d="M99.0746 116.397H94L96.9379 120H101.148L104 116.397H99.0746Z" fill="#003E7E"/>
<path d="M106.075 101L101 107.224H106.075V101Z" fill="#003E7E"/>
<path d="M106.075 101L111 107.224H106.075V101Z" fill="#003E7E"/>
<path d="M106.075 113.448L101 107.224H106.075V113.448Z" fill="#003E7E"/>
<path d="M106.075 113.448L111 107.224H106.075V113.448Z" fill="#003E7E"/>
<path d="M112.075 110.172L107 116.397H112.075V110.172Z" fill="#003E7E"/>
<path d="M112.075 110.172L117 116.397H112.075V110.172Z" fill="#003E7E"/>
<path d="M112.075 116.397H107L109.938 120H114.148L117 116.397H112.075Z" fill="#003E7E"/>
<path d="M119.075 101L114 107.224H119.075V101Z" fill="#003E7E"/>
<path d="M119.075 101L124 107.224H119.075V101Z" fill="#003E7E"/>
<path d="M119.075 113.448L114 107.224H119.075V113.448Z" fill="#003E7E"/>
<path d="M119.075 113.448L124 107.224H119.075V113.448Z" fill="#003E7E"/>
<path d="M125.075 110.172L120 116.397H125.075V110.172Z" fill="#003E7E"/>
<path d="M125.075 110.172L130 116.397H125.075V110.172Z" fill="#003E7E"/>
<path d="M125.075 116.397H120L122.938 120H127.148L130 116.397H125.075Z" fill="#003E7E"/>
<path d="M132.075 101L127 107.224H132.075V101Z" fill="#003E7E"/>
<path d="M132.075 101L137 107.224H132.075V101Z" fill="#003E7E"/>
<path d="M132.075 113.448L127 107.224H132.075V113.448Z" fill="#003E7E"/>
<path d="M132.075 113.448L137 107.224H132.075V113.448Z" fill="#003E7E"/>
<path d="M138.075 110.172L133 116.397H138.075V110.172Z" fill="#003E7E"/>
<path d="M138.075 110.172L143 116.397H138.075V110.172Z" fill="#003E7E"/>
<path d="M138.075 116.397H133L135.938 120H140.148L143 116.397H138.075Z" fill="#003E7E"/>
<path d="M145.075 101L140 107.224H145.075V101Z" fill="#003E7E"/>
<path d="M145.075 101L150 107.224H145.075V101Z" fill="#003E7E"/>
<path d="M145.075 113.448L140 107.224H145.075V113.448Z" fill="#003E7E"/>
<path d="M145.075 113.448L150 107.224H145.075V113.448Z" fill="#003E7E"/>
<path d="M151.075 110.172L146 116.397H151.075V110.172Z" fill="#003E7E"/>
<path d="M151.075 110.172L156 116.397H151.075V110.172Z" fill="#003E7E"/>
<path d="M151.075 116.397H146L148.938 120H153.148L156 116.397H151.075Z" fill="#003E7E"/>
<path fill-rule="evenodd" clip-rule="evenodd" d="M106.554 70.1481H108.843V74.2077H106.554V84.6895C106.554 85.3539 107.218 85.6488 107.218 85.6488H101.461C101.461 85.6488 102.052 85.3539 102.052 84.5424V74.2077H99.5417C99.4684 73.3216 99.5417 71.5501 99.5417 71.5501L106.554 64.1685V70.1481V70.1481Z" fill="white"/>
<path fill-rule="evenodd" clip-rule="evenodd" d="M75.1082 77.4557C75.1082 75.5364 76.7319 73.9127 78.7251 73.9127C80.6444 73.9127 82.2681 75.5364 82.2681 77.4557C82.2681 79.4483 80.6444 81.0726 78.7251 81.0726C76.7319 81.072 75.1082 79.4483 75.1082 77.4557ZM70.3835 77.4557C70.3835 72.8789 74.0743 69.1888 78.7251 69.1888C83.302 69.1888 86.9927 72.8795 86.9927 77.4557C86.9927 82.1058 83.302 85.7973 78.7251 85.7973C74.0743 85.7973 70.3835 82.1058 70.3835 77.4557Z" fill="white"/>
<path fill-rule="evenodd" clip-rule="evenodd" d="M113.198 77.5296C113.198 75.5364 114.821 73.9127 116.815 73.9127C118.808 73.9127 120.358 75.5364 120.358 77.5296C120.358 79.4483 118.808 81.0726 116.815 81.0726C114.822 81.072 113.198 79.4483 113.198 77.5296ZM108.474 77.5296C108.474 72.8795 112.238 69.1888 116.815 69.1888C121.391 69.1888 125.156 72.8795 125.156 77.5296C125.156 82.1065 121.391 85.7973 116.815 85.7973C112.238 85.7973 108.474 82.1058 108.474 77.5296Z" fill="white"/>
<path fill-rule="evenodd" clip-rule="evenodd" d="M99.1722 74.7982V84.6895C99.1722 85.3539 99.8366 85.6488 99.8366 85.6488H94.0794C94.0794 85.6488 94.7438 85.3539 94.7438 84.6895C94.6699 84.6895 94.7438 75.3887 94.7438 75.3887C94.7438 75.3887 94.7438 74.9453 94.4489 74.6504C94.2272 74.3555 93.9323 74.2809 93.5628 74.2809C93.2679 74.2809 92.9723 74.3548 92.7506 74.6504C92.4557 74.9453 92.4557 75.3887 92.4557 75.3887V84.7634C92.4557 85.3539 93.1201 85.6488 93.1201 85.6488H87.3622C87.3622 85.6488 87.9534 85.3539 87.9534 84.6895L88.0266 73.6172C87.9534 72.805 87.5839 72.8789 87.289 72.4362C87.9534 72.2145 88.1012 71.9935 88.47 71.7718C89.872 70.2213 91.5696 69.262 93.5628 69.3359C96.6631 69.3359 99.1729 71.8457 99.1729 74.946V74.7982H99.1722Z" fill="white"/>
<path fill-rule="evenodd" clip-rule="evenodd" d="M137.336 74.7982V84.6895C137.336 85.3539 138 85.6488 138 85.6488H132.168C132.168 85.6488 132.833 85.3539 132.833 84.6895V75.3887C132.833 75.3887 132.833 74.9453 132.612 74.6504C132.39 74.3555 132.095 74.2809 131.726 74.2809C131.356 74.2809 131.061 74.3548 130.839 74.6504C130.618 74.9453 130.618 75.3887 130.618 75.3887V84.7634C130.618 85.3539 131.209 85.6488 131.209 85.6488H125.452C125.452 85.6488 126.116 85.3539 126.116 84.6895V73.6172C126.116 73.1738 126.116 72.805 125.378 72.4362C126.116 72.2145 126.19 71.9935 126.559 71.7718C128.035 70.2213 129.659 69.262 131.726 69.3359C134.826 69.3359 137.336 71.8457 137.336 74.946V74.7982H137.336Z" fill="white"/>
<path fill-rule="evenodd" clip-rule="evenodd" d="M51.4863 76.7175C51.4863 73.47 51.4863 73.6172 51.4863 73.6172C51.4124 73.1006 50.9697 72.584 50.748 72.1406C52.3717 71.6979 53.4055 69.7047 55.177 69.483C56.8746 69.0396 58.72 69.3352 60.1227 70.3691C61.8203 69.0403 64.7728 68.9664 66.6182 70.0742C68.3158 71.1074 69.4975 73.1006 69.4236 75.167V76.7175V84.6895C69.4236 85.3539 70.0141 85.6488 70.0141 85.6488H64.2562C64.2562 85.6488 64.9206 85.3539 64.9206 84.6895V75.3887C64.9206 75.3887 64.9206 74.9453 64.6989 74.6504C64.4772 74.3555 64.1084 74.2809 63.8128 74.2809C63.444 74.2809 63.1484 74.3548 62.9268 74.6504C62.7051 74.946 62.7051 75.3887 62.7051 75.3887V84.7634C62.7051 85.3539 63.2956 85.6488 63.2956 85.6488H57.5377C57.5377 85.6488 58.2021 85.3539 58.2021 84.6895V76.7175C58.2021 75.9053 58.2021 75.3887 58.2021 75.3887C58.2021 75.3887 58.2021 74.9453 57.9804 74.6504C57.7587 74.3555 57.3899 74.2809 57.0943 74.2809C56.7249 74.2809 56.4299 74.3548 56.2083 74.6504C55.9127 74.9453 55.9866 75.3887 55.9866 75.3887L55.9127 84.7634C55.9127 85.3539 56.5771 85.6488 56.5771 85.6488H50.8192C50.8192 85.6488 51.4836 85.3539 51.4836 84.6895V76.7175H51.4863Z" fill="white"/>
<path fill-rule="evenodd" clip-rule="evenodd" d="M38.5685 77.6774C38.5685 75.6843 40.1922 74.0599 42.1854 74.0599C44.1786 74.0599 45.8023 75.6836 45.8023 77.6774C45.8023 79.5967 44.1786 81.2204 42.1854 81.2204C40.1922 81.2204 38.5685 79.5967 38.5685 77.6774ZM42.1854 85.9444C37.6085 85.9444 33.8438 82.2543 33.8438 77.6774C33.8438 73.0267 37.6085 69.3359 42.1854 69.3359C43.4403 69.3359 44.6213 69.5576 45.7284 70.0742L45.6545 65.0539C45.5806 64.1679 45.064 63.578 45.064 63.578H50.1568V81.7364C50.1568 82.4747 50.6002 82.6218 50.6002 82.6218C47.6477 83.3607 45.5074 86.2393 42.1854 85.9444Z" fill="white"/>
<path fill-rule="evenodd" clip-rule="evenodd" d="M41.2261 68.5976C39.6756 67.6383 37.8302 67.0478 35.9116 67.0478C31.2608 67.0478 27.4962 70.222 26.3152 74.4294H33.3279C32.9584 75.3887 32.7374 76.4958 32.7374 77.6035C32.7374 78.194 32.8113 78.7113 32.8852 79.2272H26.2413C27.2006 83.8041 31.0398 87.2732 35.9116 87.2732C37.9048 87.2732 39.6763 86.6827 41.2261 85.7234V85.7973V91.1111C39.6024 91.7016 37.757 92.0704 35.9116 92.0704C27.7172 92.0711 21 85.4278 21 77.1602C21 68.9664 27.7172 62.2492 35.9109 62.2492C37.8302 62.2492 39.6017 62.6187 41.2254 63.2085V68.5976H41.2261Z" fill="white"/>
</svg>
